<svg width="107" height="107" viewBox="0 0 107 107" fill="none" xmlns="http://www.w3.org/2000/svg">
<circle cx="53.5" cy="53.5" r="53.5" transform="matrix(1 0 0 -1 0 107)" fill="#EB5757"/>
<path d="M55.8708 73.6376V58.0918L44.7666 46.9876L33.6625 58.0918V73.6376H44.7666M55.8708 73.6376H44.7666M55.8708 73.6376H73.6375V35.8834C73.6375 35.2944 73.4035 34.7296 72.987 34.3131C72.5705 33.8966 72.0056 33.6626 71.4166 33.6626H49.2083C48.6193 33.6626 48.0544 33.8966 47.6379 34.3131C47.2215 34.7296 46.9875 35.2944 46.9875 35.8834V49.2084M44.7666 73.6376V64.7543M55.8708 42.5459V42.5681M64.7541 42.5459V42.5681M64.7541 51.4293V51.4515M64.7541 60.3126V60.3348" stroke="white" stroke-width="6.69" stroke-linecap="round" stroke-linejoin="round"/>
</svg>
