<svg width="107" height="107" viewBox="0 0 107 107" fill="none" xmlns="http://www.w3.org/2000/svg">
<circle cx="53.5" cy="53.5" r="53.5" transform="matrix(1 0 0 -1 0 107)" fill="#E1D142"/>
<path d="M33.6875 73.8125H73.8125M38.1458 73.8125V38.1458C38.1458 36.9634 38.6155 35.8294 39.4516 34.9933C40.2877 34.1572 41.4217 33.6875 42.6042 33.6875H64.8958C66.0783 33.6875 67.2123 34.1572 68.0484 34.9933C68.8845 35.8294 69.3542 36.9634 69.3542 38.1458V73.8125M47.0625 73.8125V64.8958C47.0625 63.7134 47.5322 62.5794 48.3683 61.7433C49.2044 60.9072 50.3384 60.4375 51.5208 60.4375H55.9792C57.1616 60.4375 58.2956 60.9072 59.1317 61.7433C59.9678 62.5794 60.4375 63.7134 60.4375 64.8958V73.8125M49.2917 47.0625H58.2083M53.75 42.6042V51.5208" stroke="white" stroke-width="6.6875" stroke-linecap="round" stroke-linejoin="round"/>
</svg>
