<svg width="107" height="107" viewBox="0 0 107 107" fill="none" xmlns="http://www.w3.org/2000/svg">
<circle cx="53.5" cy="53.5" r="53.5" transform="matrix(1 0 0 -1 0 107)" fill="#EB5757"/>
<path d="M35.9167 73.813C38.4735 64.8518 40.3371 55.9195 40.375 47.063H53.75C53.7879 55.9195 55.6515 64.8518 58.2083 73.813M54.8646 55.9797H64.8958C64.9516 61.8023 66.8887 67.7854 69.3542 73.813M47.0625 38.1464C47.5689 37.4408 48.2394 36.8692 49.0162 36.4808C49.793 36.0925 50.6526 35.899 51.5208 35.9172C52.3891 35.899 53.2487 36.0925 54.0255 36.4808C54.8022 36.8692 55.4728 37.4408 55.9792 38.1464C56.4856 38.8519 57.1561 39.4235 57.9329 39.8119C58.7096 40.2003 59.5692 40.3937 60.4375 40.3755C61.3058 40.3937 62.1654 40.2003 62.9421 39.8119C63.7189 39.4235 64.3894 38.8519 64.8958 38.1464C65.4022 37.4408 66.0728 36.8692 66.8495 36.4808C67.6263 36.0925 68.4859 35.899 69.3542 35.9172C70.2224 35.899 71.082 36.0925 71.8588 36.4808C72.6356 36.8692 73.3061 37.4408 73.8125 38.1464M33.6875 73.813H76.0417" stroke="white" stroke-width="6.6875" stroke-linecap="round" stroke-linejoin="round"/>
</svg>
