<svg width="70" height="22" viewBox="0 0 70 22" fill="none" xmlns="http://www.w3.org/2000/svg">
<rect width="69.5361" height="21.5868" rx="10.7934" fill="#1F1F1F"/>
<path fill-rule="evenodd" clip-rule="evenodd" d="M61.2483 6.80329C60.8946 5.80339 60.4252 4.95425 59.8402 4.25587C59.597 3.96562 59.2282 3.82031 58.8496 3.82031L57.5606 3.82031C57.4817 3.82031 57.4177 3.88428 57.4177 3.96318C57.4177 3.99918 57.4313 4.03382 57.4556 4.06039C58.2354 4.91337 58.8412 5.91881 59.2732 7.07673C59.7121 8.25335 59.9315 9.47555 59.9315 10.7433C59.9315 12.0194 59.7041 13.2581 59.2492 14.4596C58.8016 15.6501 58.1684 16.6721 57.3498 17.5256C57.3244 17.5521 57.31 17.5875 57.31 17.6243C57.31 17.7024 57.3733 17.7657 57.4514 17.7657H58.748C59.1159 17.7657 59.4752 17.6293 59.7192 17.3538C60.3508 16.6409 60.8525 15.7673 61.2244 14.733C61.6713 13.4984 61.8948 12.1685 61.8948 10.7433C61.8948 9.33468 61.6793 8.02134 61.2483 6.80329ZM8.28778 14.7831C8.64155 15.783 9.11094 16.6321 9.69596 17.3305C9.93909 17.6207 10.3079 17.7661 10.6866 17.7661H11.9755C12.0545 17.7661 12.1184 17.7021 12.1184 17.6232C12.1184 17.5872 12.1048 17.5526 12.0805 17.526C11.3008 16.673 10.6949 15.6676 10.263 14.5096C9.82403 13.333 9.60456 12.1108 9.60456 10.8431C9.60456 9.56701 9.83201 8.32824 10.2869 7.12677C10.7345 5.93627 11.3677 4.91429 12.1863 4.06081C12.2118 4.03423 12.2262 3.99889 12.2262 3.96207C12.2262 3.88395 12.1628 3.82063 12.0847 3.82063H10.7882C10.4202 3.82063 10.0609 3.95709 9.81693 4.23254C9.18533 4.94549 8.6836 5.81908 8.31172 6.85333C7.86481 8.08795 7.64136 9.41786 7.64136 10.8431C7.64136 12.2517 7.85683 13.565 8.28778 14.7831ZM48.4268 15.3888C50.9645 15.3888 53.0216 13.3317 53.0216 10.7941C53.0216 8.25647 50.9645 6.19933 48.4268 6.19933C45.8892 6.19933 43.8321 8.25647 43.8321 10.7941C43.8321 13.3317 45.8892 15.3888 48.4268 15.3888ZM48.4268 17.7668C52.2778 17.7668 55.3996 14.645 55.3996 10.7941C55.3996 6.94316 52.2778 3.82137 48.4268 3.82137C44.5759 3.82137 41.4541 6.94316 41.4541 10.7941C41.4541 14.645 44.5759 17.7668 48.4268 17.7668ZM35.2555 10.7941C35.2555 13.3317 33.1983 15.3888 30.6607 15.3888C28.1231 15.3888 26.066 13.3317 26.066 10.7941C26.066 8.25647 28.1231 6.19933 30.6607 6.19933C33.1983 6.19933 35.2555 8.25647 35.2555 10.7941ZM37.6334 10.7941C37.6334 14.645 34.5116 17.7668 30.6607 17.7668C26.8098 17.7668 23.688 14.645 23.688 10.7941C23.688 6.94315 26.8098 3.82136 30.6607 3.82136C34.5116 3.82136 37.6334 6.94315 37.6334 10.7941Z" fill="white"/>
</svg>
