<svg width="140" height="140" viewBox="0 0 140 140" fill="none" xmlns="http://www.w3.org/2000/svg">
<path d="M73.4641 134C71.9245 136.667 68.0755 136.667 66.5359 134L12.8423 41C11.3027 38.3333 13.2272 35 16.3064 35H123.694C126.773 35 128.697 38.3333 127.158 41L73.4641 134Z" fill="#27AE60"/>
<path d="M53.1851 73.8339C54.9427 81.5005 61.8044 87.2506 70 87.2506C78.1976 87.2506 85.0612 81.5005 86.8149 73.8339M86.8284 66.1672C85.9594 62.3546 83.8208 58.9503 80.7632 56.5126C77.7056 54.0749 73.9104 52.7483 70 52.7505C66.0876 52.7423 62.289 54.0664 59.2295 56.5051C56.1701 58.9437 54.0322 62.3514 53.1678 66.1672M66.1667 70.0005C66.1667 71.0172 66.5706 71.9922 67.2895 72.7111C68.0084 73.43 68.9834 73.8339 70 73.8339C71.0167 73.8339 71.9917 73.43 72.7106 72.7111C73.4295 71.9922 73.8334 71.0172 73.8334 70.0005C73.8334 68.9839 73.4295 68.0089 72.7106 67.29C71.9917 66.5711 71.0167 66.1672 70 66.1672C68.9834 66.1672 68.0084 66.5711 67.2895 67.29C66.5706 68.0089 66.1667 68.9839 66.1667 70.0005Z" stroke="white" stroke-width="4" stroke-linecap="round" stroke-linejoin="round"/>
</svg>
