<svg width="96" height="96" viewBox="0 0 96 96" fill="none" xmlns="http://www.w3.org/2000/svg">
<g filter="url(#filter0_d_568_5976)">
<circle cx="16" cy="16" r="16" transform="matrix(1 0 0 -1 32 60)" fill="#FFE4DE"/>
<path d="M42 50H54M46 41.3333H46.6667M46 44H46.6667M46 46.6667H46.6667M49.3333 41.3333H50M49.3333 44H50M49.3333 46.6667H50M43.3333 50V39.3333C43.3333 38.9797 43.4738 38.6406 43.7239 38.3905C43.9739 38.1405 44.313 38 44.6667 38H51.3333C51.687 38 52.0261 38.1405 52.2761 38.3905C52.5262 38.6406 52.6667 38.9797 52.6667 39.3333V50" stroke="#FF8165" stroke-width="2" stroke-linecap="round" stroke-linejoin="round"/>
</g>
<defs>
<filter id="filter0_d_568_5976" x="0" y="0" width="96" height="96" filterUnits="userSpaceOnUse" color-interpolation-filters="sRGB">
<feFlood flood-opacity="0" result="BackgroundImageFix"/>
<feColorMatrix in="SourceAlpha" type="matrix" values="0 0 0 0 0 0 0 0 0 0 0 0 0 0 0 0 0 0 127 0" result="hardAlpha"/>
<feOffset dy="4"/>
<feGaussianBlur stdDeviation="16"/>
<feComposite in2="hardAlpha" operator="out"/>
<feColorMatrix type="matrix" values="0 0 0 0 0 0 0 0 0 0.229583 0 0 0 0 0.395833 0 0 0 0.04 0"/>
<feBlend mode="normal" in2="BackgroundImageFix" result="effect1_dropShadow_568_5976"/>
<feBlend mode="normal" in="SourceGraphic" in2="effect1_dropShadow_568_5976" result="shape"/>
</filter>
</defs>
</svg>
