<svg width="96" height="96" viewBox="0 0 96 96" fill="none" xmlns="http://www.w3.org/2000/svg">
<g filter="url(#filter0_d_568_5971)">
<circle cx="16" cy="16" r="16" transform="matrix(1 0 0 -1 32 60)" fill="#D9EFFF"/>
<path d="M42 50H54M43.3333 50V39.3333C43.3333 38.9797 43.4738 38.6406 43.7239 38.3905C43.9739 38.1405 44.313 38 44.6667 38H51.3333C51.687 38 52.0261 38.1405 52.2761 38.3905C52.5262 38.6406 52.6667 38.9797 52.6667 39.3333V50M46 50V47.3333C46 46.9797 46.1405 46.6406 46.3905 46.3905C46.6406 46.1405 46.9797 46 47.3333 46H48.6667C49.0203 46 49.3594 46.1405 49.6095 46.3905C49.8595 46.6406 50 46.9797 50 47.3333V50M46.6667 42H49.3333M48 40.6667V43.3333" stroke="#003B65" stroke-width="2" stroke-linecap="round" stroke-linejoin="round"/>
</g>
<defs>
<filter id="filter0_d_568_5971" x="0" y="0" width="96" height="96" filterUnits="userSpaceOnUse" color-interpolation-filters="sRGB">
<feFlood flood-opacity="0" result="BackgroundImageFix"/>
<feColorMatrix in="SourceAlpha" type="matrix" values="0 0 0 0 0 0 0 0 0 0 0 0 0 0 0 0 0 0 127 0" result="hardAlpha"/>
<feOffset dy="4"/>
<feGaussianBlur stdDeviation="16"/>
<feComposite in2="hardAlpha" operator="out"/>
<feColorMatrix type="matrix" values="0 0 0 0 0 0 0 0 0 0.229583 0 0 0 0 0.395833 0 0 0 0.04 0"/>
<feBlend mode="normal" in2="BackgroundImageFix" result="effect1_dropShadow_568_5971"/>
<feBlend mode="normal" in="SourceGraphic" in2="effect1_dropShadow_568_5971" result="shape"/>
</filter>
</defs>
</svg>
