<svg width="321" height="322" viewBox="0 0 321 322" fill="none" xmlns="http://www.w3.org/2000/svg">
<g filter="url(#filter0_d_568_5971)">
<circle cx="53.5" cy="53.5" r="53.5" transform="matrix(1 0 0 -1 107 201)" fill="#003B65"/>
<path d="M140.438 167.563H180.563M144.896 167.563V131.896C144.896 130.713 145.366 129.579 146.202 128.743C147.038 127.907 148.172 127.438 149.354 127.438H171.646C172.828 127.438 173.962 127.907 174.798 128.743C175.634 129.579 176.104 130.713 176.104 131.896V167.563M153.813 167.563V158.646C153.813 157.463 154.282 156.329 155.118 155.493C155.954 154.657 157.088 154.188 158.271 154.188H162.729C163.912 154.188 165.046 154.657 165.882 155.493C166.718 156.329 167.188 157.463 167.188 158.646V167.563M156.042 140.813H164.958M160.5 136.354V145.271" stroke="white" stroke-width="6.6875" stroke-linecap="round" stroke-linejoin="round"/>
</g>
<defs>
<filter id="filter0_d_568_5971" x="0" y="0.375" width="321" height="321" filterUnits="userSpaceOnUse" color-interpolation-filters="sRGB">
<feFlood flood-opacity="0" result="BackgroundImageFix"/>
<feColorMatrix in="SourceAlpha" type="matrix" values="0 0 0 0 0 0 0 0 0 0 0 0 0 0 0 0 0 0 127 0" result="hardAlpha"/>
<feOffset dy="13.375"/>
<feGaussianBlur stdDeviation="53.5"/>
<feComposite in2="hardAlpha" operator="out"/>
<feColorMatrix type="matrix" values="0 0 0 0 0 0 0 0 0 0.229583 0 0 0 0 0.395833 0 0 0 0.04 0"/>
<feBlend mode="normal" in2="BackgroundImageFix" result="effect1_dropShadow_568_5971"/>
<feBlend mode="normal" in="SourceGraphic" in2="effect1_dropShadow_568_5971" result="shape"/>
</filter>
</defs>
</svg>
