<svg width="322" height="322" viewBox="0 0 322 322" fill="none" xmlns="http://www.w3.org/2000/svg">
<g filter="url(#filter0_d_568_6023)">
<circle cx="53.5" cy="53.5" r="53.5" transform="matrix(1 0 0 -1 107.188 201)" fill="#383838"/>
<path d="M142.854 167.563C145.411 158.602 147.275 149.67 147.313 140.813H160.688C160.725 149.67 162.589 158.602 165.146 167.563M161.802 149.73H171.833C171.889 155.552 173.826 161.535 176.292 167.563M154 131.896C154.506 131.191 155.177 130.619 155.954 130.231C156.73 129.842 157.59 129.649 158.458 129.667C159.327 129.649 160.186 129.842 160.963 130.231C161.74 130.619 162.41 131.191 162.917 131.896C163.423 132.602 164.094 133.174 164.87 133.562C165.647 133.95 166.507 134.144 167.375 134.126C168.243 134.144 169.103 133.95 169.88 133.562C170.656 133.174 171.327 132.602 171.833 131.896C172.34 131.191 173.01 130.619 173.787 130.231C174.564 129.842 175.423 129.649 176.292 129.667C177.16 129.649 178.02 129.842 178.796 130.231C179.573 130.619 180.244 131.191 180.75 131.896M140.625 167.563H182.979" stroke="white" stroke-width="6.6875" stroke-linecap="round" stroke-linejoin="round"/>
</g>
<defs>
<filter id="filter0_d_568_6023" x="0.1875" y="0.375" width="321" height="321" filterUnits="userSpaceOnUse" color-interpolation-filters="sRGB">
<feFlood flood-opacity="0" result="BackgroundImageFix"/>
<feColorMatrix in="SourceAlpha" type="matrix" values="0 0 0 0 0 0 0 0 0 0 0 0 0 0 0 0 0 0 127 0" result="hardAlpha"/>
<feOffset dy="13.375"/>
<feGaussianBlur stdDeviation="53.5"/>
<feComposite in2="hardAlpha" operator="out"/>
<feColorMatrix type="matrix" values="0 0 0 0 0 0 0 0 0 0.229583 0 0 0 0 0.395833 0 0 0 0.04 0"/>
<feBlend mode="normal" in2="BackgroundImageFix" result="effect1_dropShadow_568_6023"/>
<feBlend mode="normal" in="SourceGraphic" in2="effect1_dropShadow_568_6023" result="shape"/>
</filter>
</defs>
</svg>
